<svg xmlns="http://www.w3.org/2000/svg" viewBox="0 0 300 260" width="300" height="260">
<style>
  .axis { stroke: #999; stroke-width: 1; }
  .grid { stroke: #eee; stroke-width: 0.5; }
  .curve { stroke: #e74c3c; stroke-width: 2; fill: none; }
  .line { stroke: #3498db; stroke-width: 1.5; fill: none; }
  .dash { stroke: #999; stroke-width: 1; stroke-dasharray: 4 3; fill: none; }
  .pt { fill: #2c3e50; }
  .label { font-family: serif; font-size: 13px; fill: #2c3e50; }
  .angle { stroke: #27ae60; stroke-width: 1; fill: rgba(39,174,96,0.1); }
  .right { stroke: #27ae60; stroke-width: 1; fill: none; }
  .shade { fill: rgba(52,152,219,0.1); stroke: #3498db; stroke-width: 1; }
  .circ { stroke: #8e44ad; stroke-width: 1.5; fill: none; }
</style>
<line x1="40.0" y1="140.0" x2="280.0" y2="140.0" class="axis"/><line x1="70.0" y1="200.0" x2="70.0" y2="-20.0" class="axis"/><polyline points="40.0,-70.0 43.0,-60.0 46.1,-50.2 49.1,-40.5 52.2,-31.1 55.2,-21.9 58.2,-12.9 61.3,-4.1 64.3,4.4 67.3,12.8 70.4,21.0 73.4,29.0 76.5,36.8 79.5,44.3 82.5,51.7 85.6,58.8 88.6,65.8 91.6,72.5 94.7,79.1 97.7,85.4 100.8,91.5 103.8,97.4 106.8,103.2 109.9,108.7 112.9,114.0 115.9,119.1 119.0,124.0 122.0,128.7 125.1,133.1 128.1,137.4 131.1,141.5 134.2,145.4 137.2,149.0 140.3,152.5 143.3,155.8 146.3,158.8 149.4,161.7 152.4,164.3 155.4,166.7 158.5,169.0 161.5,171.0 164.6,172.8 167.6,174.4 170.6,175.8 173.7,177.0 176.7,178.0 179.7,178.8 182.8,179.4 185.8,179.8 188.9,180.0 191.9,180.0 194.9,179.7 198.0,179.3 201.0,178.7 204.1,177.8 207.1,176.8 210.1,175.5 213.2,174.0 216.2,172.4 219.2,170.5 222.3,168.4 225.3,166.1 228.4,163.7 231.4,161.0 234.4,158.1 237.5,155.0 240.5,151.7 243.5,148.1 246.6,144.4 249.6,140.5 252.7,136.4 255.7,132.0 258.7,127.5 261.8,122.8 264.8,117.8 267.8,112.7 270.9,107.3 273.9,101.7 277.0,96.0 280.0,90.0" class="curve"/><circle cx="70.0" cy="20.0" r="3" class="pt"/><text x="78.0" y="15.0" class="label">A(0,3)</text><circle cx="130.0" cy="140.0" r="3" class="pt"/><text x="138.0" y="158.0" class="label">B(1,0)</text><circle cx="250.0" cy="140.0" r="3" class="pt"/><text x="245.0" y="158.0" class="label">C(3,0)</text>
</svg>