<svg xmlns="http://www.w3.org/2000/svg" viewBox="0 0 300 260" width="300" height="260">
<style>
  .axis { stroke: #999; stroke-width: 1; }
  .grid { stroke: #eee; stroke-width: 0.5; }
  .curve { stroke: #e74c3c; stroke-width: 2; fill: none; }
  .line { stroke: #3498db; stroke-width: 1.5; fill: none; }
  .dash { stroke: #999; stroke-width: 1; stroke-dasharray: 4 3; fill: none; }
  .pt { fill: #2c3e50; }
  .label { font-family: serif; font-size: 13px; fill: #2c3e50; }
  .angle { stroke: #27ae60; stroke-width: 1; fill: rgba(39,174,96,0.1); }
  .right { stroke: #27ae60; stroke-width: 1; fill: none; }
  .shade { fill: rgba(52,152,219,0.1); stroke: #3498db; stroke-width: 1; }
  .circ { stroke: #8e44ad; stroke-width: 1.5; fill: none; }
</style>
<line x1="30.0" y1="192.5" x2="239.0" y2="192.5" class="axis"/><line x1="87.0" y1="227.5" x2="87.0" y2="17.5" class="axis"/><polyline points="35.3,226.3 37.9,219.5 40.6,212.7 43.2,206.2 45.9,199.8 48.5,193.6 51.2,187.6 53.8,181.7 56.5,176.0 59.1,170.5 61.7,165.1 64.4,159.9 67.0,154.9 69.7,150.1 72.3,145.4 75.0,140.9 77.6,136.5 80.3,132.4 82.9,128.4 85.6,124.5 88.2,120.9 90.8,117.4 93.5,114.0 96.1,110.9 98.8,107.9 101.4,105.1 104.1,102.4 106.7,100.0 109.4,97.7 112.0,95.5 114.7,93.6 117.3,91.8 119.9,90.1 122.6,88.7 125.2,87.4 127.9,86.3 130.5,85.3 133.2,84.5 135.8,83.9 138.5,83.5 141.1,83.2 143.8,83.1 146.4,83.2 149.1,83.4 151.7,83.8 154.3,84.4 157.0,85.2 159.6,86.1 162.3,87.2 164.9,88.4 167.6,89.9 170.2,91.5 172.9,93.2 175.5,95.2 178.2,97.3 180.8,99.5 183.4,102.0 186.1,104.6 188.7,107.4 191.4,110.3 194.0,113.5 196.7,116.7 199.3,120.2 202.0,123.8 204.6,127.6 207.3,131.6 209.9,135.8 212.5,140.1 215.2,144.5 217.8,149.2 220.5,154.0 223.1,159.0 225.8,164.2 228.4,169.5 231.1,175.0 233.7,180.7 236.4,186.5 239.0,192.5" class="curve"/><circle cx="49.0" cy="192.5" r="3" class="pt"/><text x="57.0" y="210.5" class="label">A</text><circle cx="87.0" cy="122.5" r="3" class="pt"/><text x="95.0" y="117.5" class="label">C</text><circle cx="163.0" cy="87.5" r="3" class="pt"/><text x="143.0" y="82.5" class="label">P</text><polygon points="49.0,192.5 87.0,122.5 163.0,87.5" class="shade"/><line x1="49.0" y1="192.5" x2="87.0" y2="122.5" class="line"/><line x1="87.0" y1="122.5" x2="163.0" y2="87.5" class="line"/><line x1="163.0" y1="87.5" x2="49.0" y2="192.5" class="line"/>
</svg>