<svg xmlns="http://www.w3.org/2000/svg" viewBox="0 0 320 260" width="320" height="260">
<style>
  .axis { stroke: #999; stroke-width: 1; }
  .grid { stroke: #eee; stroke-width: 0.5; }
  .curve { stroke: #e74c3c; stroke-width: 2; fill: none; }
  .line { stroke: #3498db; stroke-width: 1.5; fill: none; }
  .dash { stroke: #999; stroke-width: 1; stroke-dasharray: 4 3; fill: none; }
  .pt { fill: #2c3e50; }
  .label { font-family: serif; font-size: 13px; fill: #2c3e50; }
  .angle { stroke: #27ae60; stroke-width: 1; fill: rgba(39,174,96,0.1); }
  .right { stroke: #27ae60; stroke-width: 1; fill: none; }
  .shade { fill: rgba(52,152,219,0.1); stroke: #3498db; stroke-width: 1; }
  .circ { stroke: #8e44ad; stroke-width: 1.5; fill: none; }
</style>
<line x1="40" y1="220" x2="220.0" y2="220" class="axis"/><line x1="80" y1="237.5" x2="80" y2="10" class="axis"/><polyline points="40.0,185.0 43.1,190.1 46.1,194.9 49.2,199.2 52.2,203.1 55.3,206.6 58.3,209.7 61.4,212.4 64.4,214.7 67.5,216.6 70.5,218.0 73.6,219.1 76.6,219.7 79.7,220.0 82.7,219.8 85.8,219.3 88.8,218.3 91.9,216.9 94.9,215.1 98.0,212.9 101.0,210.3 104.1,207.3 107.1,203.9 110.2,200.1 113.2,195.9 116.3,191.2 119.3,186.2 122.4,180.7 125.4,174.9 128.5,168.6 131.5,161.9 134.6,154.8 137.6,147.4 140.7,139.5 143.7,131.2 146.8,122.4 149.8,113.3 152.9,103.8 155.9,93.9 159.0,83.5 162.0,72.8 165.1,61.6 168.1,50.1 171.2,38.1 174.2,25.7 177.3,13.0" class="curve"/><polyline points="64.4,-14.9 67.5,-2.3 70.5,9.8 73.6,21.6 76.6,32.9 79.7,43.8 82.7,54.3 85.8,64.4 88.8,74.1 91.9,83.4 94.9,92.3 98.0,100.8 101.0,108.9 104.1,116.6 107.1,123.8 110.2,130.7 113.2,137.1 116.3,143.2 119.3,148.8 122.4,154.0 125.4,158.8 128.5,163.3 131.5,167.3 134.6,170.9 137.6,174.1 140.7,176.8 143.7,179.2 146.8,181.2 149.8,182.7 152.9,183.9 155.9,184.6 159.0,185.0 162.0,184.9 165.1,184.4 168.1,183.6 171.2,182.3 174.2,180.6 177.3,178.5 180.3,176.0 183.4,173.0 186.4,169.7 189.5,166.0 192.5,161.8 195.6,157.3 198.6,152.3 201.7,147.0 204.7,141.2 207.8,135.0 210.8,128.4 213.9,121.5 216.9,114.1 220.0,106.2" style="stroke:#8e44ad;stroke-width:2;fill:none"/><circle cx="80" cy="220" r="3" class="pt"/><text x="88" y="238" class="label">O</text><circle cx="160" cy="185" r="3" class="pt"/><text x="168" y="180" class="label">(2,1)</text><text x="130" y="248" class="label" style="font-size:11px;fill:#e74c3c">y=x²</text><text x="185" y="200" class="label" style="font-size:11px;fill:#8e44ad">y=(x-2)²+1</text>
</svg>