<svg xmlns="http://www.w3.org/2000/svg" viewBox="0 0 300 260" width="300" height="260">
<style>
  .axis { stroke: #999; stroke-width: 1; }
  .grid { stroke: #eee; stroke-width: 0.5; }
  .curve { stroke: #e74c3c; stroke-width: 2; fill: none; }
  .line { stroke: #3498db; stroke-width: 1.5; fill: none; }
  .dash { stroke: #999; stroke-width: 1; stroke-dasharray: 4 3; fill: none; }
  .pt { fill: #2c3e50; }
  .label { font-family: serif; font-size: 13px; fill: #2c3e50; }
  .angle { stroke: #27ae60; stroke-width: 1; fill: rgba(39,174,96,0.1); }
  .right { stroke: #27ae60; stroke-width: 1; fill: none; }
  .shade { fill: rgba(52,152,219,0.1); stroke: #3498db; stroke-width: 1; }
  .circ { stroke: #8e44ad; stroke-width: 1.5; fill: none; }
</style>
<line x1="40" y1="165" x2="285" y2="165" class="axis"/><line x1="110" y1="235" x2="110" y2="-10" class="axis"/><polyline points="61.7,223.2 64.8,208.7 67.9,194.8 71.0,181.4 74.1,168.6 77.2,156.3 80.3,144.5 83.4,133.4 86.5,122.7 89.6,112.6 92.7,103.1 95.8,94.1 98.9,85.7 102.0,77.8 105.1,70.4 108.2,63.6 111.3,57.4 114.4,51.7 117.5,46.6 120.6,42.0 123.7,37.9 126.8,34.4 129.9,31.5 133.0,29.1 136.1,27.2 139.2,25.9 142.3,25.2 145.4,25.0 148.5,25.4 151.6,26.3 154.7,27.7 157.8,29.7 160.9,32.3 164.1,35.4 167.2,39.0 170.3,43.2 173.4,48.0 176.5,53.3 179.6,59.1 182.7,65.5 185.8,72.5 188.9,80.0 192.0,88.0 195.1,96.6 198.2,105.8 201.3,115.5 204.4,125.7 207.5,136.5 210.6,147.8 213.7,159.7 216.8,172.2 219.9,185.2 223.0,198.7 226.1,212.8 229.2,227.5" class="curve"/><circle cx="75" cy="165" r="3" class="pt"/><text x="83" y="183" class="label">A</text><circle cx="215" cy="165" r="3" class="pt"/><text x="210" y="183" class="label">B</text><circle cx="110" cy="60" r="3" class="pt"/><text x="118" y="55" class="label">C</text><line x1="75" y1="165" x2="110" y2="60" class="dash"/><line x1="215" y1="165" x2="110" y2="60" class="dash"/>
</svg>