<svg xmlns="http://www.w3.org/2000/svg" viewBox="0 0 320 260" width="320" height="260">
<style>
.ax{stroke:#bbb;stroke-width:.8;fill:none} .cv{stroke:#e74c3c;stroke-width:2;fill:none}
.ln{stroke:#3498db;stroke-width:1.5;fill:none} .dm{stroke:#aaa;stroke-width:.8;stroke-dasharray:4 3;fill:none}
.p{fill:#2c3e50} .lb{font:12px serif;fill:#2c3e50} .an{stroke:#27ae60;stroke-width:1;fill:rgba(39,174,96,.12)}
.rt{stroke:#27ae60;stroke-width:1;fill:none} .sh{fill:rgba(52,152,219,.1);stroke:#3498db;stroke-width:1}
.ci{stroke:#8e44ad;stroke-width:1.5;fill:none} .tn{stroke:#e67e22;stroke-width:1.5;fill:none}
.rd{stroke:#e74c3c;stroke-width:1;stroke-dasharray:5 3;fill:none}
</style><line x1="30.0" y1="194.0" x2="205.0" y2="194.0" class="ax"/><line x1="82.5" y1="210.0" x2="82.5" y2="50.0" class="ax"/><polyline points="43.3,209.9 45.5,201.4 47.7,193.2 49.9,185.2 52.2,177.6 54.4,170.1 56.6,162.9 58.8,156.0 61.0,149.4 63.2,142.9 65.4,136.8 67.7,130.9 69.9,125.3 72.1,119.9 74.3,114.7 76.5,109.9 78.7,105.3 80.9,100.9 83.2,96.8 85.4,93.0 87.6,89.4 89.8,86.0 92.0,83.0 94.2,80.1 96.5,77.6 98.7,75.3 100.9,73.2 103.1,71.4 105.3,69.9 107.5,68.6 109.7,67.6 112.0,66.8 114.2,66.3 116.4,66.0 118.6,66.0 120.8,66.3 123.0,66.8 125.3,67.6 127.5,68.6 129.7,69.9 131.9,71.4 134.1,73.2 136.3,75.3 138.5,77.6 140.8,80.1 143.0,83.0 145.2,86.0 147.4,89.4 149.6,93.0 151.8,96.8 154.1,100.9 156.3,105.3 158.5,109.9 160.7,114.7 162.9,119.9 165.1,125.3 167.3,130.9 169.6,136.8 171.8,142.9 174.0,149.4 176.2,156.0 178.4,162.9 180.6,170.1 182.8,177.6 185.1,185.2 187.3,193.2 189.5,201.4 191.7,209.9" class="cv"/><polygon points="47.5,194.0 140.8,80.2 140.8,194.0" class="sh"/><line x1="140.8" y1="80.2" x2="140.8" y2="194.0" class="dm"/><line x1="117.5" y1="210.0" x2="117.5" y2="50.0" class="dm"/><circle cx="47.5" cy="194.0" r="3" class="p"/><text x="55.5" y="210.0" class="lb">A</text><circle cx="187.5" cy="194.0" r="3" class="p"/><text x="195.5" y="210.0" class="lb">B</text><circle cx="82.5" cy="98.0" r="3" class="p"/><text x="90.5" y="90.0" class="lb">C</text><circle cx="140.8" cy="80.2" r="3" class="p"/><text x="120.8" y="72.2" class="lb">P</text><circle cx="140.8" cy="194.0" r="3" class="p"/><text x="148.8" y="210.0" class="lb">Q</text>
</svg>