<svg xmlns="http://www.w3.org/2000/svg" viewBox="0 0 300 260" width="300" height="260">
<style>
  .axis { stroke: #999; stroke-width: 1; }
  .grid { stroke: #eee; stroke-width: 0.5; }
  .curve { stroke: #e74c3c; stroke-width: 2; fill: none; }
  .line { stroke: #3498db; stroke-width: 1.5; fill: none; }
  .dash { stroke: #999; stroke-width: 1; stroke-dasharray: 4 3; fill: none; }
  .pt { fill: #2c3e50; }
  .label { font-family: serif; font-size: 13px; fill: #2c3e50; }
  .angle { stroke: #27ae60; stroke-width: 1; fill: rgba(39,174,96,0.1); }
  .right { stroke: #27ae60; stroke-width: 1; fill: none; }
  .shade { fill: rgba(52,152,219,0.1); stroke: #3498db; stroke-width: 1; }
  .circ { stroke: #8e44ad; stroke-width: 1.5; fill: none; }
</style>
<polygon points="78.0,162.0 81.9,146.8 85.8,132.4 89.7,118.8 93.6,106.0 97.5,94.0 101.4,82.9 105.3,72.5 109.2,62.9 113.1,54.1 117.0,46.1 120.9,38.9 124.8,32.5 128.7,26.9 132.6,22.1 136.5,18.1 140.4,14.9 144.3,12.5 148.2,10.9 152.1,10.1 155.9,10.1 159.8,10.9 163.7,12.5 167.6,14.9 171.5,18.1 175.4,22.1 179.3,26.9 183.2,32.5 187.1,38.9 191.0,46.1 194.9,54.1 198.8,62.9 202.7,72.5 206.6,82.9 210.5,94.0 214.4,106.0 218.3,118.8 222.2,132.4 226.1,146.8 230.0,162.0 230.0,162.0 78.0,162.0" class="shade"/><line x1="40" y1="162" x2="268" y2="162" class="axis"/><line x1="116" y1="200" x2="116" y2="-28" class="axis"/><polyline points="63.1,227.5 66.0,213.9 68.9,200.8 71.7,188.0 74.6,175.8 77.5,163.9 80.4,152.5 83.3,141.6 86.2,131.1 89.1,121.0 91.9,111.3 94.8,102.1 97.7,93.3 100.6,85.0 103.5,77.1 106.4,69.7 109.3,62.7 112.2,56.1 115.0,49.9 117.9,44.2 120.8,39.0 123.7,34.2 126.6,29.8 129.5,25.8 132.4,22.3 135.2,19.3 138.1,16.6 141.0,14.4 143.9,12.7 146.8,11.4 149.7,10.5 152.6,10.1 155.4,10.1 158.3,10.5 161.2,11.4 164.1,12.7 167.0,14.4 169.9,16.6 172.8,19.3 175.6,22.3 178.5,25.8 181.4,29.8 184.3,34.2 187.2,39.0 190.1,44.2 193.0,49.9 195.8,56.1 198.7,62.7 201.6,69.7 204.5,77.1 207.4,85.0 210.3,93.3 213.2,102.1 216.1,111.3 218.9,121.0 221.8,131.1 224.7,141.6 227.6,152.5 230.5,163.9 233.4,175.8 236.3,188.0 239.1,200.8 242.0,213.9 244.9,227.5" class="curve"/><circle cx="78" cy="162" r="3" class="pt"/><text x="73" y="180" class="label">(-1,0)</text><circle cx="230" cy="162" r="3" class="pt"/><text x="225" y="180" class="label">(3,0)</text><circle cx="154" cy="10" r="3" class="pt"/><text x="162" y="5" class="label">(1,4)</text><text x="80" y="155" class="label" style="fill:#3498db;font-size:12px">y&gt;0</text>
</svg>