<svg xmlns="http://www.w3.org/2000/svg" viewBox="0 0 300 240" width="300" height="240">
<style>
.ax{stroke:#bbb;stroke-width:.8;fill:none} .cv{stroke:#e74c3c;stroke-width:2;fill:none}
.ln{stroke:#3498db;stroke-width:1.5;fill:none} .dm{stroke:#aaa;stroke-width:.8;stroke-dasharray:4 3;fill:none}
.p{fill:#2c3e50} .lb{font:12px serif;fill:#2c3e50} .an{stroke:#27ae60;stroke-width:1;fill:rgba(39,174,96,.12)}
.rt{stroke:#27ae60;stroke-width:1;fill:none} .sh{fill:rgba(52,152,219,.1);stroke:#3498db;stroke-width:1}
.ci{stroke:#8e44ad;stroke-width:1.5;fill:none} .tn{stroke:#e67e22;stroke-width:1.5;fill:none}
.rd{stroke:#e74c3c;stroke-width:1;stroke-dasharray:5 3;fill:none}
</style><line x1="16.5" y1="210.0" x2="223.5" y2="210.0" class="ax"/><polyline points="27.0,219.5 29.6,211.2 32.2,203.2 34.8,195.3 37.5,187.7 40.1,180.4 42.7,173.3 45.3,166.4 47.9,159.7 50.6,153.3 53.2,147.2 55.8,141.2 58.4,135.5 61.0,130.1 63.7,124.9 66.3,119.9 68.9,115.1 71.5,110.6 74.1,106.3 76.8,102.3 79.4,98.5 82.0,94.9 84.6,91.6 87.2,88.5 89.9,85.7 92.5,83.1 95.1,80.7 97.7,78.6 100.3,76.7 103.0,75.0 105.6,73.6 108.2,72.4 110.8,71.5 113.4,70.7 116.1,70.3 118.7,70.0 121.3,70.0 123.9,70.3 126.6,70.7 129.2,71.5 131.8,72.4 134.4,73.6 137.0,75.0 139.7,76.7 142.3,78.6 144.9,80.7 147.5,83.1 150.1,85.7 152.8,88.5 155.4,91.6 158.0,94.9 160.6,98.5 163.2,102.3 165.9,106.3 168.5,110.6 171.1,115.1 173.7,119.9 176.3,124.9 179.0,130.1 181.6,135.5 184.2,141.2 186.8,147.2 189.4,153.3 192.1,159.7 194.7,166.4 197.3,173.3 199.9,180.4 202.5,187.7 205.2,195.3 207.8,203.2 210.4,211.2 213.0,219.5" class="cv"/><rect x="75.0" y="105.0" width="90.0" height="105.0" style="fill:rgba(52,152,219,.15);stroke:#3498db;stroke-width:1.5"/><circle cx="75.0" cy="105.0" r="3" class="p"/><text x="83.0" y="97.0" class="lb">(1,3)</text><circle cx="165.0" cy="105.0" r="3" class="p"/><text x="120.0" y="97.0" class="lb">(3,3)</text><circle cx="30.0" cy="210.0" r="3" class="p"/><text x="38.0" y="226.0" class="lb">O</text><circle cx="210.0" cy="210.0" r="3" class="p"/><text x="218.0" y="226.0" class="lb">(4,0)</text><circle cx="120.0" cy="70.0" r="3" class="p"/><text x="128.0" y="62.0" class="lb">(2,4)</text>
</svg>