<svg xmlns="http://www.w3.org/2000/svg" viewBox="0 0 300 260" width="300" height="260">
<style>
  .axis { stroke: #999; stroke-width: 1; }
  .grid { stroke: #eee; stroke-width: 0.5; }
  .curve { stroke: #e74c3c; stroke-width: 2; fill: none; }
  .line { stroke: #3498db; stroke-width: 1.5; fill: none; }
  .dash { stroke: #999; stroke-width: 1; stroke-dasharray: 4 3; fill: none; }
  .pt { fill: #2c3e50; }
  .label { font-family: serif; font-size: 13px; fill: #2c3e50; }
  .angle { stroke: #27ae60; stroke-width: 1; fill: rgba(39,174,96,0.1); }
  .right { stroke: #27ae60; stroke-width: 1; fill: none; }
  .shade { fill: rgba(52,152,219,0.1); stroke: #3498db; stroke-width: 1; }
  .circ { stroke: #8e44ad; stroke-width: 1.5; fill: none; }
</style>
<line x1="25.0" y1="220" x2="255.0" y2="220" class="axis"/><polyline points="36.6,230.9 39.6,221.4 42.5,212.2 45.4,203.2 48.3,194.6 51.2,186.2 54.1,178.0 57.0,170.2 59.9,162.6 62.8,155.2 65.8,148.2 68.7,141.4 71.6,134.9 74.5,128.7 77.4,122.7 80.3,117.0 83.2,111.6 86.1,106.4 89.1,101.5 92.0,96.9 94.9,92.6 97.8,88.5 100.7,84.7 103.6,81.2 106.5,77.9 109.4,75.0 112.3,72.2 115.3,69.8 118.2,67.6 121.1,65.7 124.0,64.1 126.9,62.7 129.8,61.7 132.7,60.8 135.6,60.3 138.5,60.0 141.5,60.0 144.4,60.3 147.3,60.8 150.2,61.7 153.1,62.7 156.0,64.1 158.9,65.7 161.8,67.6 164.7,69.8 167.7,72.2 170.6,75.0 173.5,77.9 176.4,81.2 179.3,84.7 182.2,88.5 185.1,92.6 188.0,96.9 190.9,101.5 193.9,106.4 196.8,111.6 199.7,117.0 202.6,122.7 205.5,128.7 208.4,134.9 211.3,141.4 214.2,148.2 217.2,155.2 220.1,162.6 223.0,170.2 225.9,178.0 228.8,186.2 231.7,194.6 234.6,203.2 237.5,212.2 240.4,221.4 243.4,230.9" class="curve"/><rect x="90" y="100" width="100" height="120" style="fill:rgba(52,152,219,0.15);stroke:#3498db;stroke-width:1.5"/><circle cx="90" cy="100" r="3" class="pt"/><text x="98" y="95" class="label">(1,3)</text><circle cx="190" cy="100" r="3" class="pt"/><text x="150" y="95" class="label">(3,3)</text><circle cx="40" cy="220" r="3" class="pt"/><text x="48" y="238" class="label">O</text><circle cx="240" cy="220" r="3" class="pt"/><text x="235" y="238" class="label">(4,0)</text><circle cx="140" cy="60" r="3" class="pt"/><text x="148" y="55" class="label">(2,4)</text>
</svg>