<svg xmlns="http://www.w3.org/2000/svg" viewBox="0 0 300 240" width="300" height="240">
<style>
.ax{stroke:#bbb;stroke-width:.8;fill:none} .cv{stroke:#e74c3c;stroke-width:2;fill:none}
.ln{stroke:#3498db;stroke-width:1.5;fill:none} .dm{stroke:#aaa;stroke-width:.8;stroke-dasharray:4 3;fill:none}
.p{fill:#2c3e50} .lb{font:12px serif;fill:#2c3e50} .an{stroke:#27ae60;stroke-width:1;fill:rgba(39,174,96,.12)}
.rt{stroke:#27ae60;stroke-width:1;fill:none} .sh{fill:rgba(52,152,219,.1);stroke:#3498db;stroke-width:1}
.ci{stroke:#8e44ad;stroke-width:1.5;fill:none} .tn{stroke:#e67e22;stroke-width:1.5;fill:none}
.rd{stroke:#e74c3c;stroke-width:1;stroke-dasharray:5 3;fill:none}
</style><polygon points="65.0,168.0 68.6,155.2 72.2,143.1 75.8,131.6 79.4,120.9 82.9,110.8 86.5,101.3 90.1,92.6 93.7,84.5 97.3,77.1 100.9,70.4 104.5,64.3 108.1,58.9 111.7,54.2 115.3,50.2 118.8,46.8 122.4,44.1 126.0,42.1 129.6,40.8 133.2,40.1 136.8,40.1 140.4,40.8 144.0,42.1 147.6,44.1 151.2,46.8 154.7,50.2 158.3,54.2 161.9,58.9 165.5,64.3 169.1,70.4 172.7,77.1 176.3,84.5 179.9,92.6 183.5,101.3 187.1,110.8 190.6,120.9 194.2,131.6 197.8,143.1 201.4,155.2 205.0,168.0 205.0,168.0 65.0,168.0" class="sh"/><line x1="30.0" y1="168.0" x2="240.0" y2="168.0" class="ax"/><line x1="100.0" y1="200.0" x2="100.0" y2="24.0" class="ax"/><polyline points="30.0,328.0 32.7,313.6 35.3,299.6 38.0,285.9 40.6,272.6 43.3,259.7 45.9,247.2 48.6,235.0 51.3,223.2 53.9,211.7 56.6,200.6 59.2,189.9 61.9,179.6 64.6,169.6 67.2,160.0 69.9,150.8 72.5,141.9 75.2,133.4 77.8,125.3 80.5,117.6 83.2,110.2 85.8,103.2 88.5,96.5 91.1,90.3 93.8,84.3 96.5,78.8 99.1,73.6 101.8,68.8 104.4,64.4 107.1,60.4 109.7,56.7 112.4,53.3 115.1,50.4 117.7,47.8 120.4,45.6 123.0,43.7 125.7,42.3 128.4,41.2 131.0,40.4 133.7,40.0 136.3,40.0 139.0,40.4 141.6,41.2 144.3,42.3 147.0,43.7 149.6,45.6 152.3,47.8 154.9,50.4 157.6,53.3 160.3,56.7 162.9,60.4 165.6,64.4 168.2,68.8 170.9,73.6 173.5,78.8 176.2,84.3 178.9,90.3 181.5,96.5 184.2,103.2 186.8,110.2 189.5,117.6 192.2,125.3 194.8,133.4 197.5,141.9 200.1,150.8 202.8,160.0 205.4,169.6 208.1,179.6 210.8,189.9 213.4,200.6 216.1,211.7 218.7,223.2 221.4,235.0 224.1,247.2 226.7,259.7 229.4,272.6 232.0,285.9 234.7,299.6 237.3,313.6 240.0,328.0" class="cv"/><circle cx="65.0" cy="168.0" r="3" class="p"/><text x="20.0" y="184.0" class="lb">(-1,0)</text><circle cx="205.0" cy="168.0" r="3" class="p"/><text x="213.0" y="184.0" class="lb">(3,0)</text><circle cx="135.0" cy="40.0" r="3" class="p"/><text x="143.0" y="32.0" class="lb">(1,4)</text><text x="90" y="140" class="lb" style="fill:#3498db;font-size:12px">y&gt;0</text>
</svg>