<svg xmlns="http://www.w3.org/2000/svg" viewBox="0 0 300 240" width="300" height="240">
<style>
.ax{stroke:#bbb;stroke-width:.8;fill:none} .cv{stroke:#e74c3c;stroke-width:2;fill:none}
.ln{stroke:#3498db;stroke-width:1.5;fill:none} .dm{stroke:#aaa;stroke-width:.8;stroke-dasharray:4 3;fill:none}
.p{fill:#2c3e50} .lb{font:12px serif;fill:#2c3e50} .an{stroke:#27ae60;stroke-width:1;fill:rgba(39,174,96,.12)}
.rt{stroke:#27ae60;stroke-width:1;fill:none} .sh{fill:rgba(52,152,219,.1);stroke:#3498db;stroke-width:1}
.ci{stroke:#8e44ad;stroke-width:1.5;fill:none} .tn{stroke:#e67e22;stroke-width:1.5;fill:none}
.rd{stroke:#e74c3c;stroke-width:1;stroke-dasharray:5 3;fill:none}
</style><line x1="30.0" y1="157.5" x2="270.0" y2="157.5" class="ax"/><line x1="60.0" y1="210.0" x2="60.0" y2="17.5" class="ax"/><polyline points="30.0,-26.2 33.0,-17.5 36.1,-8.9 39.1,-0.5 42.2,7.8 45.2,15.8 48.2,23.7 51.3,31.4 54.3,38.9 57.3,46.2 60.4,53.4 63.4,60.4 66.5,67.2 69.5,73.8 72.5,80.2 75.6,86.5 78.6,92.6 81.6,98.5 84.7,104.2 87.7,109.7 90.8,115.1 93.8,120.3 96.8,125.3 99.9,130.1 102.9,134.7 105.9,139.2 109.0,143.5 112.0,147.6 115.1,151.5 118.1,155.2 121.1,158.8 124.2,162.2 127.2,165.4 130.3,168.4 133.3,171.3 136.3,174.0 139.4,176.4 142.4,178.8 145.4,180.9 148.5,182.8 151.5,184.6 154.6,186.2 157.6,187.6 160.6,188.9 163.7,189.9 166.7,190.8 169.7,191.5 172.8,192.0 175.8,192.3 178.9,192.5 181.9,192.5 184.9,192.3 188.0,191.9 191.0,191.3 194.1,190.6 197.1,189.7 200.1,188.6 203.2,187.3 206.2,185.8 209.2,184.2 212.3,182.4 215.3,180.4 218.4,178.2 221.4,175.8 224.4,173.3 227.5,170.6 230.5,167.7 233.5,164.6 236.6,161.4 239.6,157.9 242.7,154.3 245.7,150.5 248.7,146.6 251.8,142.4 254.8,138.1 257.8,133.6 260.9,128.9 263.9,124.0 267.0,119.0 270.0,113.8" class="cv"/><circle cx="60.0" cy="52.5" r="3" class="p"/><text x="68.0" y="44.5" class="lb">A(0,3)</text><circle cx="120.0" cy="157.5" r="3" class="p"/><text x="128.0" y="173.5" class="lb">B(1,0)</text><circle cx="240.0" cy="157.5" r="3" class="p"/><text x="210.0" y="173.5" class="lb">C(3,0)</text>
</svg>