<svg xmlns="http://www.w3.org/2000/svg" viewBox="0 0 300 240" width="300" height="240">
<style>
.ax{stroke:#bbb;stroke-width:.8;fill:none} .cv{stroke:#e74c3c;stroke-width:2;fill:none}
.ln{stroke:#3498db;stroke-width:1.5;fill:none} .dm{stroke:#aaa;stroke-width:.8;stroke-dasharray:4 3;fill:none}
.p{fill:#2c3e50} .lb{font:12px serif;fill:#2c3e50} .an{stroke:#27ae60;stroke-width:1;fill:rgba(39,174,96,.12)}
.rt{stroke:#27ae60;stroke-width:1;fill:none} .sh{fill:rgba(52,152,219,.1);stroke:#3498db;stroke-width:1}
.ci{stroke:#8e44ad;stroke-width:1.5;fill:none} .tn{stroke:#e67e22;stroke-width:1.5;fill:none}
.rd{stroke:#e74c3c;stroke-width:1;stroke-dasharray:5 3;fill:none}
</style><line x1="30.0" y1="185.0" x2="222.5" y2="185.0" class="ax"/><line x1="82.5" y1="200.0" x2="82.5" y2="50.0" class="ax"/><polyline points="30.0,226.2 32.4,220.1 34.9,214.0 37.3,208.1 39.7,202.3 42.2,196.7 44.6,191.3 47.1,186.0 49.5,180.8 51.9,175.7 54.4,170.9 56.8,166.1 59.2,161.5 61.7,157.1 64.1,152.8 66.6,148.6 69.0,144.6 71.4,140.7 73.9,137.0 76.3,133.4 78.7,130.0 81.2,126.7 83.6,123.6 86.0,120.6 88.5,117.7 90.9,115.0 93.4,112.5 95.8,110.1 98.2,107.8 100.7,105.7 103.1,103.7 105.5,101.9 108.0,100.2 110.4,98.7 112.8,97.3 115.3,96.0 117.7,94.9 120.2,93.9 122.6,93.1 125.0,92.5 127.5,91.9 129.9,91.6 132.3,91.3 134.8,91.3 137.2,91.3 139.7,91.5 142.1,91.9 144.5,92.4 147.0,93.0 149.4,93.8 151.8,94.7 154.3,95.8 156.7,97.0 159.1,98.4 161.6,99.9 164.0,101.6 166.5,103.4 168.9,105.3 171.3,107.4 173.8,109.7 176.2,112.0 178.6,114.6 181.1,117.2 183.5,120.1 185.9,123.0 188.4,126.1 190.8,129.4 193.3,132.8 195.7,136.4 198.1,140.1 200.6,143.9 203.0,147.9 205.4,152.0 207.9,156.3 210.3,160.7 212.8,165.3 215.2,170.0 217.6,174.8 220.1,179.9 222.5,185.0" class="cv"/><polygon points="47.5,185.0 82.5,125.0 152.5,95.0" class="sh"/><line x1="47.5" y1="185.0" x2="82.5" y2="125.0" class="ln"/><line x1="82.5" y1="125.0" x2="152.5" y2="95.0" class="ln"/><line x1="152.5" y1="95.0" x2="47.5" y2="185.0" class="ln"/><circle cx="47.5" cy="185.0" r="3" class="p"/><text x="55.5" y="201.0" class="lb">A</text><circle cx="82.5" cy="125.0" r="3" class="p"/><text x="90.5" y="117.0" class="lb">C</text><circle cx="152.5" cy="95.0" r="3" class="p"/><text x="132.5" y="87.0" class="lb">P</text>
</svg>