<svg xmlns="http://www.w3.org/2000/svg" viewBox="0 0 320 280" width="320" height="280">
<style>
  .axis { stroke: #999; stroke-width: 1; }
  .grid { stroke: #eee; stroke-width: 0.5; }
  .curve { stroke: #e74c3c; stroke-width: 2; fill: none; }
  .line { stroke: #3498db; stroke-width: 1.5; fill: none; }
  .dash { stroke: #999; stroke-width: 1; stroke-dasharray: 4 3; fill: none; }
  .pt { fill: #2c3e50; }
  .label { font-family: serif; font-size: 13px; fill: #2c3e50; }
  .angle { stroke: #27ae60; stroke-width: 1; fill: rgba(39,174,96,0.1); }
  .right { stroke: #27ae60; stroke-width: 1; fill: none; }
  .shade { fill: rgba(52,152,219,0.1); stroke: #3498db; stroke-width: 1; }
  .circ { stroke: #8e44ad; stroke-width: 1.5; fill: none; }
</style>
<line x1="40.0" y1="201.0" x2="230.0" y2="201.0" class="axis"/><line x1="97.0" y1="239.0" x2="97.0" y2="11.0" class="axis"/><polyline points="52.0,230.2 54.4,219.8 56.8,209.8 59.2,200.0 61.6,190.6 64.1,181.5 66.5,172.6 68.9,164.1 71.3,155.9 73.7,148.0 76.1,140.4 78.5,133.1 80.9,126.1 83.3,119.4 85.7,113.0 88.1,106.9 90.5,101.1 92.9,95.6 95.3,90.4 97.7,85.6 100.1,81.0 102.5,76.7 104.9,72.8 107.3,69.1 109.7,65.8 112.2,62.7 114.6,60.0 117.0,57.6 119.4,55.4 121.8,53.6 124.2,52.1 126.6,50.9 129.0,50.0 131.4,49.3 133.8,49.0 136.2,49.0 138.6,49.3 141.0,50.0 143.4,50.9 145.8,52.1 148.2,53.6 150.6,55.4 153.0,57.6 155.4,60.0 157.8,62.7 160.3,65.8 162.7,69.1 165.1,72.8 167.5,76.7 169.9,81.0 172.3,85.6 174.7,90.4 177.1,95.6 179.5,101.1 181.9,106.9 184.3,113.0 186.7,119.4 189.1,126.1 191.5,133.1 193.9,140.4 196.3,148.0 198.7,155.9 201.1,164.1 203.5,172.6 205.9,181.5 208.4,190.6 210.8,200.0 213.2,209.8 215.6,219.8 218.0,230.2" class="curve"/><circle cx="59.0" cy="201.0" r="3" class="pt"/><text x="67.0" y="219.0" class="label">A</text><circle cx="211.0" cy="201.0" r="3" class="pt"/><text x="206.0" y="219.0" class="label">B</text><circle cx="97.0" cy="87.0" r="3" class="pt"/><text x="105.0" y="82.0" class="label">C</text><circle cx="160.33333333333334" cy="65.88888888888889" r="3" class="pt"/><text x="140.33333333333334" y="60.888888888888886" class="label">P</text><line x1="160.33333333333334" y1="65.88888888888889" x2="160.33333333333334" y2="201.0" class="dash"/><circle cx="160.33333333333334" cy="201.0" r="3" class="pt"/><text x="168.33333333333334" y="219.0" class="label">Q</text><line x1="135.0" y1="220.0" x2="135.0" y2="30.0" class="dash"/><polygon points="59.0,201.0 160.33333333333334,65.88888888888889 160.33333333333334,201.0" class="shade"/>
</svg>