<svg xmlns="http://www.w3.org/2000/svg" viewBox="0 0 300 260" width="300" height="260">
<style>
  .axis { stroke: #999; stroke-width: 1; }
  .grid { stroke: #eee; stroke-width: 0.5; }
  .curve { stroke: #e74c3c; stroke-width: 2; fill: none; }
  .line { stroke: #3498db; stroke-width: 1.5; fill: none; }
  .dash { stroke: #999; stroke-width: 1; stroke-dasharray: 4 3; fill: none; }
  .pt { fill: #2c3e50; }
  .label { font-family: serif; font-size: 13px; fill: #2c3e50; }
  .angle { stroke: #27ae60; stroke-width: 1; fill: rgba(39,174,96,0.1); }
  .right { stroke: #27ae60; stroke-width: 1; fill: none; }
  .shade { fill: rgba(52,152,219,0.1); stroke: #3498db; stroke-width: 1; }
  .circ { stroke: #8e44ad; stroke-width: 1.5; fill: none; }
</style>
<line x1="40" y1="90" x2="320" y2="90" class="axis"/><line x1="120" y1="222" x2="120" y2="46" class="axis"/><polyline points="40.0,-20.0 43.5,-8.5 47.1,2.7 50.6,13.5 54.2,24.0 57.7,34.2 61.3,44.0 64.8,53.4 68.4,62.5 71.9,71.3 75.4,79.7 79.0,87.8 82.5,95.5 86.1,102.9 89.6,109.9 93.2,116.6 96.7,122.9 100.3,128.9 103.8,134.6 107.3,139.9 110.9,144.8 114.4,149.4 118.0,153.7 121.5,157.6 125.1,161.2 128.6,164.4 132.2,167.3 135.7,169.9 139.2,172.1 142.8,173.9 146.3,175.4 149.9,176.6 153.4,177.4 157.0,177.9 160.5,178.0 164.1,177.8 167.6,177.2 171.1,176.3 174.7,175.0 178.2,173.4 181.8,171.5 185.3,169.2 188.9,166.5 192.4,163.6 195.9,160.2 199.5,156.6 203.0,152.5 206.6,148.2 210.1,143.5 213.7,138.4 217.2,133.0 220.8,127.2 224.3,121.1 227.8,114.7 231.4,107.9 234.9,100.8 238.5,93.3 242.0,85.5 245.6,77.3 249.1,68.8 252.7,59.9 256.2,50.7 259.7,41.2 263.3,31.3 266.8,21.1 270.4,10.5 273.9,-0.5 277.5,-11.7 281.0,-23.4 284.6,-35.3" class="curve"/><line x1="160" y1="222" x2="160" y2="46" class="dash"/><circle cx="120" cy="156" r="3" class="pt"/><text x="128" y="151" class="label">C</text><circle cx="160" cy="178" r="3" class="pt"/><text x="168" y="196" class="label">D</text><circle cx="200" cy="156" r="3" class="pt"/><text x="208" y="151" class="label">C'</text><circle cx="160" cy="178" r="3" class="pt"/><line x1="200" y1="156" x2="160" y2="178" style="stroke:#27ae60;stroke-width:1.5"/>
</svg>