<svg xmlns="http://www.w3.org/2000/svg" viewBox="0 0 300 240" width="300" height="240">
<style>
.ax{stroke:#bbb;stroke-width:.8;fill:none} .cv{stroke:#e74c3c;stroke-width:2;fill:none}
.ln{stroke:#3498db;stroke-width:1.5;fill:none} .dm{stroke:#aaa;stroke-width:.8;stroke-dasharray:4 3;fill:none}
.p{fill:#2c3e50} .lb{font:12px serif;fill:#2c3e50} .an{stroke:#27ae60;stroke-width:1;fill:rgba(39,174,96,.12)}
.rt{stroke:#27ae60;stroke-width:1;fill:none} .sh{fill:rgba(52,152,219,.1);stroke:#3498db;stroke-width:1}
.ci{stroke:#8e44ad;stroke-width:1.5;fill:none} .tn{stroke:#e67e22;stroke-width:1.5;fill:none}
.rd{stroke:#e74c3c;stroke-width:1;stroke-dasharray:5 3;fill:none}
</style><line x1="30.0" y1="100.0" x2="240.0" y2="100.0" class="ax"/><line x1="90.0" y1="190.0" x2="90.0" y2="64.0" class="ax"/><polyline points="48.6,70.1 51.3,77.5 53.9,84.7 56.6,91.6 59.2,98.2 61.9,104.5 64.6,110.5 67.2,116.3 69.9,121.7 72.5,126.9 75.2,131.8 77.8,136.5 80.5,140.8 83.2,144.9 85.8,148.6 88.5,152.1 91.1,155.3 93.8,158.3 96.5,160.9 99.1,163.3 101.8,165.4 104.4,167.2 107.1,168.7 109.7,169.9 112.4,170.8 115.1,171.5 117.7,171.9 120.4,172.0 123.0,171.8 125.7,171.4 128.4,170.6 131.0,169.6 133.7,168.3 136.3,166.7 139.0,164.8 141.6,162.6 144.3,160.2 147.0,157.5 149.6,154.5 152.3,151.2 154.9,147.6 157.6,143.7 160.3,139.6 162.9,135.2 165.6,130.5 168.2,125.5 170.9,120.2 173.5,114.7 176.2,108.8 178.9,102.7 181.5,96.3 184.2,89.6 186.8,82.7 189.5,75.4 192.2,67.9" class="cv"/><line x1="120.0" y1="190.0" x2="120.0" y2="82.0" class="dm"/><circle cx="90.0" cy="154.0" r="3" class="p"/><text x="98.0" y="146.0" class="lb">C</text><circle cx="120.0" cy="172.0" r="3" class="p"/><text x="128.0" y="188.0" class="lb">D</text><circle cx="150.0" cy="154.0" r="3" class="p"/><text x="158.0" y="146.0" class="lb">C'</text><line x1="150.0" y1="154.0" x2="120.0" y2="172.0" class="ln"/>
</svg>