<svg xmlns="http://www.w3.org/2000/svg" viewBox="0 0 300 240" width="300" height="240">
<style>
.ax{stroke:#bbb;stroke-width:.8;fill:none} .cv{stroke:#e74c3c;stroke-width:2;fill:none}
.ln{stroke:#3498db;stroke-width:1.5;fill:none} .dm{stroke:#aaa;stroke-width:.8;stroke-dasharray:4 3;fill:none}
.p{fill:#2c3e50} .lb{font:12px serif;fill:#2c3e50} .an{stroke:#27ae60;stroke-width:1;fill:rgba(39,174,96,.12)}
.rt{stroke:#27ae60;stroke-width:1;fill:none} .sh{fill:rgba(52,152,219,.1);stroke:#3498db;stroke-width:1}
.ci{stroke:#8e44ad;stroke-width:1.5;fill:none} .tn{stroke:#e67e22;stroke-width:1.5;fill:none}
.rd{stroke:#e74c3c;stroke-width:1;stroke-dasharray:5 3;fill:none}
</style><line x1="30.0" y1="155.0" x2="240.0" y2="155.0" class="ax"/><line x1="90.0" y1="205.0" x2="90.0" y2="42.5" class="ax"/><polyline points="48.6,196.6 51.3,186.2 53.9,176.3 56.6,166.7 59.2,157.5 61.9,148.8 64.6,140.4 67.2,132.4 69.9,124.8 72.5,117.6 75.2,110.8 77.8,104.4 80.5,98.3 83.2,92.7 85.8,87.4 88.5,82.6 91.1,78.1 93.8,74.1 96.5,70.4 99.1,67.1 101.8,64.2 104.4,61.7 107.1,59.6 109.7,57.9 112.4,56.6 115.1,55.7 117.7,55.1 120.4,55.0 123.0,55.3 125.7,55.9 128.4,56.9 131.0,58.4 133.7,60.2 136.3,62.4 139.0,65.0 141.6,68.0 144.3,71.4 147.0,75.2 149.6,79.4 152.3,83.9 154.9,88.9 157.6,94.3 160.3,100.0 162.9,106.1 165.6,112.7 168.2,119.6 170.9,126.9 173.5,134.6 176.2,142.7 178.9,151.2 181.5,160.1 184.2,169.4 186.8,179.1 189.5,189.1 192.2,199.6" class="cv"/><circle cx="60.0" cy="155.0" r="3" class="p"/><text x="68.0" y="171.0" class="lb">A</text><circle cx="180.0" cy="155.0" r="3" class="p"/><text x="188.0" y="171.0" class="lb">B</text><circle cx="90.0" cy="80.0" r="3" class="p"/><text x="98.0" y="72.0" class="lb">C</text><line x1="60.0" y1="155.0" x2="90.0" y2="80.0" class="dm"/><line x1="180.0" y1="155.0" x2="90.0" y2="80.0" class="dm"/>
</svg>