<svg xmlns="http://www.w3.org/2000/svg" viewBox="0 0 320 260" width="320" height="260">
<style>
  .axis { stroke: #999; stroke-width: 1; }
  .grid { stroke: #eee; stroke-width: 0.5; }
  .curve { stroke: #e74c3c; stroke-width: 2; fill: none; }
  .line { stroke: #3498db; stroke-width: 1.5; fill: none; }
  .dash { stroke: #999; stroke-width: 1; stroke-dasharray: 4 3; fill: none; }
  .pt { fill: #2c3e50; }
  .label { font-family: serif; font-size: 13px; fill: #2c3e50; }
  .angle { stroke: #27ae60; stroke-width: 1; fill: rgba(39,174,96,0.1); }
  .right { stroke: #27ae60; stroke-width: 1; fill: none; }
  .shade { fill: rgba(52,152,219,0.1); stroke: #3498db; stroke-width: 1; }
  .circ { stroke: #8e44ad; stroke-width: 1.5; fill: none; }
</style>
<line x1="40" y1="170" x2="285" y2="170" class="axis"/><line x1="110" y1="290" x2="110" y2="-10" class="axis"/><polyline points="40.0,20.0 43.1,35.7 46.2,51.0 49.3,65.7 52.4,80.0 55.5,93.9 58.6,107.2 61.7,120.1 64.8,132.5 67.9,144.5 71.0,155.9 74.1,166.9 77.2,177.5 80.3,187.5 83.4,197.1 86.5,206.2 89.6,214.9 92.7,223.1 95.8,230.8 98.9,238.0 102.0,244.8 105.1,251.1 108.2,256.9 111.3,262.2 114.4,267.1 117.5,271.5 120.6,275.5 123.7,278.9 126.8,281.9 129.9,284.4 133.0,286.5 136.1,288.1 139.2,289.2 142.3,289.8 145.4,290.0 148.5,289.7 151.6,288.9 154.7,287.7 157.8,286.0 160.9,283.8 164.1,281.1 167.2,278.0 170.3,274.4 173.4,270.3 176.5,265.8 179.6,260.8 182.7,255.3 185.8,249.3 188.9,242.9 192.0,236.0 195.1,228.6 198.2,220.8 201.3,212.5 204.4,203.7 207.5,194.4 210.6,184.7 213.7,174.5 216.8,163.8 219.9,152.7 223.0,141.1 226.1,129.0 229.2,116.5 232.3,103.4 235.4,90.0 238.5,76.0 241.6,61.6 244.7,46.6 247.8,31.3 250.9,15.4 254.0,-0.9 257.1,-17.7 260.2,-34.9 263.3,-52.7 266.4,-70.9 269.5,-89.6 272.6,-108.7 275.7,-128.3" class="curve"/><line x1="40" y1="200" x2="285" y2="-10" class="line"/><circle cx="250" cy="20" r="3" class="pt"/><text x="258" y="15" class="label">A(4,5)</text><circle cx="75" cy="170" r="3" class="pt"/><text x="35" y="188" class="label">B(-1,0)</text><circle cx="110" cy="170" r="3" class="pt"/><text x="118" y="188" class="label">O</text><polygon points="110,170 250,20 75,170" class="shade"/>
</svg>