<svg xmlns="http://www.w3.org/2000/svg" viewBox="0 0 300 260" width="300" height="260">
<style>
  .axis { stroke: #999; stroke-width: 1; }
  .grid { stroke: #eee; stroke-width: 0.5; }
  .curve { stroke: #e74c3c; stroke-width: 2; fill: none; }
  .line { stroke: #3498db; stroke-width: 1.5; fill: none; }
  .dash { stroke: #999; stroke-width: 1; stroke-dasharray: 4 3; fill: none; }
  .pt { fill: #2c3e50; }
  .label { font-family: serif; font-size: 13px; fill: #2c3e50; }
  .angle { stroke: #27ae60; stroke-width: 1; fill: rgba(39,174,96,0.1); }
  .right { stroke: #27ae60; stroke-width: 1; fill: none; }
  .shade { fill: rgba(52,152,219,0.1); stroke: #3498db; stroke-width: 1; }
  .circ { stroke: #8e44ad; stroke-width: 1.5; fill: none; }
</style>
<line x1="40.0" y1="172" x2="315.0" y2="172" class="axis"/><line x1="122.5" y1="210" x2="122.5" y2="-18" class="axis"/><polyline points="40.0,257.5 43.5,245.6 47.0,234.1 50.4,222.8 53.9,211.8 57.4,201.2 60.9,190.8 64.4,180.8 67.8,171.0 71.3,161.6 74.8,152.5 78.3,143.6 81.8,135.1 85.3,126.9 88.7,119.0 92.2,111.4 95.7,104.1 99.2,97.1 102.7,90.4 106.1,84.0 109.6,77.9 113.1,72.1 116.6,66.6 120.1,61.4 123.5,56.6 127.0,52.0 130.5,47.7 134.0,43.8 137.5,40.1 140.9,36.8 144.4,33.7 147.9,31.0 151.4,28.6 154.9,26.4 158.4,24.6 161.8,23.1 165.3,21.9 168.8,21.0 172.3,20.3 175.8,20.0 179.2,20.0 182.7,20.3 186.2,21.0 189.7,21.9 193.2,23.1 196.6,24.6 200.1,26.4 203.6,28.6 207.1,31.0 210.6,33.7 214.1,36.8 217.5,40.1 221.0,43.8 224.5,47.7 228.0,52.0 231.5,56.6 234.9,61.4 238.4,66.6 241.9,72.1 245.4,77.9 248.9,84.0 252.3,90.4 255.8,97.1 259.3,104.1 262.8,111.4 266.3,119.0 269.7,126.9 273.2,135.1 276.7,143.6 280.2,152.5 283.7,161.6 287.2,171.0 290.6,180.8 294.1,190.8 297.6,201.2 301.1,211.8 304.6,222.8 308.0,234.1 311.5,245.6 315.0,257.5" class="curve"/><circle cx="67.5" cy="172" r="3" class="pt"/><text x="62.5" y="190" class="label">(-1,0)</text><circle cx="287.5" cy="172" r="3" class="pt"/><text x="282.5" y="190" class="label">(3,0)</text><circle cx="177.5" cy="20" r="3" class="pt"/><text x="185.5" y="15" class="label">(1,4)</text>
</svg>