<svg xmlns="http://www.w3.org/2000/svg" viewBox="0 0 340 240" width="340" height="240">
<style>
  .axis { stroke: #999; stroke-width: 1; }
  .curve { stroke: #e74c3c; stroke-width: 2; fill: none; }
  .line { stroke: #3498db; stroke-width: 1.5; fill: none; }
  .dash { stroke: #999; stroke-width: 1; stroke-dasharray: 4 3; fill: none; }
  .pt { fill: #2c3e50; }
  .label { font-family: serif; font-size: 13px; fill: #2c3e50; }
  .angle { stroke: #27ae60; stroke-width: 1; fill: rgba(39,174,96,0.1); }
  .right { stroke: #27ae60; stroke-width: 1; fill: none; }
  .shade { fill: rgba(52,152,219,0.1); stroke: #3498db; stroke-width: 1; }
  .sim { fill: rgba(231,76,60,0.08); stroke: #e74c3c; stroke-width: 1; }
  .circ { stroke: #8e44ad; stroke-width: 1.5; fill: none; }
  .parallel { stroke: #e67e22; stroke-width: 1.5; fill: none; }
</style>
<polygon points="80,50 30,200 140,200" class="shade"/><polygon points="230,70 190,200 280,200" class="sim"/><path d="M 100,60 A 20,20 0 0 1 70,70" class="angle"/><text x="75" y="75" class="label" style="font-size:10px">50°</text><path d="M 40,180 A 20,20 0 0 1 50,195" class="angle"/><text x="42" y="185" class="label" style="font-size:10px">70°</text><path d="M 250,80 A 20,20 0 0 1 220,90" class="angle"/><text x="225" y="95" class="label" style="font-size:10px">50°</text><path d="M 200,180 A 20,20 0 0 1 210,195" class="angle"/><text x="202" y="185" class="label" style="font-size:10px">70°</text><circle cx="80" cy="50" r="3" class="pt"/><text x="88" y="45" class="label">A</text><circle cx="30" cy="200" r="3" class="pt"/><text x="12" y="205" class="label">B</text><circle cx="140" cy="200" r="3" class="pt"/><text x="148" y="205" class="label">C</text><circle cx="230" cy="70" r="3" class="pt"/><text x="238" y="65" class="label">D</text><circle cx="190" cy="200" r="3" class="pt"/><text x="172" y="205" class="label">E</text><circle cx="280" cy="200" r="3" class="pt"/><text x="288" y="205" class="label">F</text>
</svg>