<svg xmlns="http://www.w3.org/2000/svg" viewBox="0 0 340 240" width="340" height="240">
<style>
  .axis { stroke: #999; stroke-width: 1; }
  .curve { stroke: #e74c3c; stroke-width: 2; fill: none; }
  .line { stroke: #3498db; stroke-width: 1.5; fill: none; }
  .dash { stroke: #999; stroke-width: 1; stroke-dasharray: 4 3; fill: none; }
  .pt { fill: #2c3e50; }
  .label { font-family: serif; font-size: 13px; fill: #2c3e50; }
  .angle { stroke: #27ae60; stroke-width: 1; fill: rgba(39,174,96,0.1); }
  .right { stroke: #27ae60; stroke-width: 1; fill: none; }
  .shade { fill: rgba(52,152,219,0.1); stroke: #3498db; stroke-width: 1; }
  .sim { fill: rgba(231,76,60,0.08); stroke: #e74c3c; stroke-width: 1; }
  .circ { stroke: #8e44ad; stroke-width: 1.5; fill: none; }
  .parallel { stroke: #e67e22; stroke-width: 1.5; fill: none; }
</style>
<polygon points="100,40 30,210 200,210" class="shade"/><polygon points="240,80 200,210 290,210" class="sim"/><path d="M 117.5,57.5 A 25,25 0 0 1 82.5,57.5" class="angle"/><text x="92" y="70" class="label" style="font-size:10px">40°</text><path d="M 257.5,97.5 A 25,25 0 0 1 222.5,97.5" class="angle"/><text x="232" y="110" class="label" style="font-size:10px">40°</text><circle cx="100" cy="40" r="3" class="pt"/><text x="108" y="35" class="label">A</text><circle cx="30" cy="210" r="3" class="pt"/><text x="12" y="215" class="label">B</text><circle cx="200" cy="210" r="3" class="pt"/><text x="208" y="215" class="label">C</text><circle cx="240" cy="80" r="3" class="pt"/><text x="248" y="75" class="label">D</text><circle cx="200" cy="210" r="3" class="pt"/><text x="182" y="215" class="label">E</text><circle cx="290" cy="210" r="3" class="pt"/><text x="298" y="215" class="label">F</text><text x="55" y="130" class="label" style="font-size:10px;fill:#3498db">6</text><text x="140" y="130" class="label" style="font-size:10px;fill:#3498db">9</text><text x="215" y="150" class="label" style="font-size:10px;fill:#e74c3c">4</text><text x="265" y="150" class="label" style="font-size:10px;fill:#e74c3c">6</text>
</svg>