<svg xmlns="http://www.w3.org/2000/svg" viewBox="0 0 300 260" width="300" height="260">
<style>
  .axis { stroke: #999; stroke-width: 1; }
  .curve { stroke: #e74c3c; stroke-width: 2; fill: none; }
  .line { stroke: #3498db; stroke-width: 1.5; fill: none; }
  .dash { stroke: #999; stroke-width: 1; stroke-dasharray: 4 3; fill: none; }
  .pt { fill: #2c3e50; }
  .label { font-family: serif; font-size: 13px; fill: #2c3e50; }
  .angle { stroke: #27ae60; stroke-width: 1; fill: rgba(39,174,96,0.1); }
  .right { stroke: #27ae60; stroke-width: 1; fill: none; }
  .shade { fill: rgba(52,152,219,0.1); stroke: #3498db; stroke-width: 1; }
  .sim { fill: rgba(231,76,60,0.08); stroke: #e74c3c; stroke-width: 1; }
  .circ { stroke: #8e44ad; stroke-width: 1.5; fill: none; }
  .parallel { stroke: #e67e22; stroke-width: 1.5; fill: none; }
</style>
<polygon points="40,30 260,30 260,210 40,210" class="shade"/><circle cx="40" cy="100" r="3" class="pt"/><text x="22" y="100" class="label">P</text><circle cx="260" cy="170" r="3" class="pt"/><text x="268" y="170" class="label">Q</text><line x1="32" y1="80" x2="32" y2="120" style="stroke:#e67e22;stroke-width:1.5;marker-end:url(#arrow)"/><line x1="268" y1="150" x2="268" y2="190" style="stroke:#e67e22;stroke-width:1.5"/><polygon points="40,30 260,30 40,100" style="fill:rgba(231,76,60,0.1);stroke:#e74c3c;stroke-width:1"/><polygon points="260,170 260,210 260,30" style="fill:rgba(46,204,113,0.1);stroke:#27ae60;stroke-width:1"/><circle cx="40" cy="30" r="3" class="pt"/><text x="22" y="25" class="label">A</text><circle cx="260" cy="30" r="3" class="pt"/><text x="268" y="25" class="label">B</text><circle cx="260" cy="210" r="3" class="pt"/><text x="268" y="215" class="label">C</text><circle cx="40" cy="210" r="3" class="pt"/><text x="22" y="215" class="label">D</text>
</svg>