<svg xmlns="http://www.w3.org/2000/svg" viewBox="0 0 300 240" width="300" height="240">
<style>
.ax{stroke:#bbb;stroke-width:.8;fill:none} .cv{stroke:#e74c3c;stroke-width:2;fill:none}
.ln{stroke:#3498db;stroke-width:1.5;fill:none} .dm{stroke:#aaa;stroke-width:.8;stroke-dasharray:4 3;fill:none}
.p{fill:#2c3e50} .lb{font:12px serif;fill:#2c3e50} .an{stroke:#27ae60;stroke-width:1;fill:rgba(39,174,96,.12)}
.rt{stroke:#27ae60;stroke-width:1;fill:none} .sh{fill:rgba(52,152,219,.1);stroke:#3498db;stroke-width:1}
.ci{stroke:#8e44ad;stroke-width:1.5;fill:none} .tn{stroke:#e67e22;stroke-width:1.5;fill:none}
.rd{stroke:#e74c3c;stroke-width:1;stroke-dasharray:5 3;fill:none}
</style><line x1="30.0" y1="172.0" x2="305.0" y2="172.0" class="ax"/><line x1="112.5" y1="210.0" x2="112.5" y2="-18.0" class="ax"/><polyline points="30.0,257.5 33.5,245.6 37.0,234.1 40.4,222.8 43.9,211.8 47.4,201.2 50.9,190.8 54.4,180.8 57.8,171.0 61.3,161.6 64.8,152.5 68.3,143.6 71.8,135.1 75.3,126.9 78.7,119.0 82.2,111.4 85.7,104.1 89.2,97.1 92.7,90.4 96.1,84.0 99.6,77.9 103.1,72.1 106.6,66.6 110.1,61.4 113.5,56.6 117.0,52.0 120.5,47.7 124.0,43.8 127.5,40.1 130.9,36.8 134.4,33.7 137.9,31.0 141.4,28.6 144.9,26.4 148.4,24.6 151.8,23.1 155.3,21.9 158.8,21.0 162.3,20.3 165.8,20.0 169.2,20.0 172.7,20.3 176.2,21.0 179.7,21.9 183.2,23.1 186.6,24.6 190.1,26.4 193.6,28.6 197.1,31.0 200.6,33.7 204.1,36.8 207.5,40.1 211.0,43.8 214.5,47.7 218.0,52.0 221.5,56.6 224.9,61.4 228.4,66.6 231.9,72.1 235.4,77.9 238.9,84.0 242.3,90.4 245.8,97.1 249.3,104.1 252.8,111.4 256.3,119.0 259.7,126.9 263.2,135.1 266.7,143.6 270.2,152.5 273.7,161.6 277.2,171.0 280.6,180.8 284.1,190.8 287.6,201.2 291.1,211.8 294.6,222.8 298.0,234.1 301.5,245.6 305.0,257.5" class="cv"/><circle cx="57.5" cy="172.0" r="3" class="p"/><text x="17.5" y="188.0" class="lb">(-1,0)</text><circle cx="277.5" cy="172.0" r="3" class="p"/><text x="285.5" y="188.0" class="lb">(3,0)</text><circle cx="167.5" cy="20.0" r="3" class="p"/><text x="175.5" y="12.0" class="lb">(1,4)</text>
</svg>