<svg xmlns="http://www.w3.org/2000/svg" viewBox="0 0 320 240" width="320" height="240">
<style>
.ax{stroke:#bbb;stroke-width:.8;fill:none} .cv{stroke:#e74c3c;stroke-width:2;fill:none}
.ln{stroke:#3498db;stroke-width:1.5;fill:none} .dm{stroke:#aaa;stroke-width:.8;stroke-dasharray:4 3;fill:none}
.p{fill:#2c3e50} .lb{font:12px serif;fill:#2c3e50} .an{stroke:#27ae60;stroke-width:1;fill:rgba(39,174,96,.12)}
.rt{stroke:#27ae60;stroke-width:1;fill:none} .sh{fill:rgba(52,152,219,.1);stroke:#3498db;stroke-width:1}
.ci{stroke:#8e44ad;stroke-width:1.5;fill:none} .tn{stroke:#e67e22;stroke-width:1.5;fill:none}
.rd{stroke:#e74c3c;stroke-width:1;stroke-dasharray:5 3;fill:none}
</style><line x1="30.0" y1="220.0" x2="205.0" y2="220.0" class="ax"/><line x1="65.0" y1="235.0" x2="65.0" y2="40.0" class="ax"/><polyline points="30.0,190.0 33.0,194.9 35.9,199.3 38.9,203.3 41.9,206.9 44.8,210.0 47.8,212.8 50.8,215.0 53.7,216.9 56.7,218.3 59.7,219.3 62.6,219.9 65.6,220.0 68.6,219.7 71.5,219.0 74.5,217.8 77.5,216.2 80.4,214.2 83.4,211.7 86.4,208.8 89.3,205.5 92.3,201.8 95.3,197.6 98.2,193.0 101.2,187.9 104.2,182.5 107.1,176.6 110.1,170.2 113.1,163.5 116.0,156.3 119.0,148.6 121.9,140.6 124.9,132.1 127.9,123.2 130.8,113.8 133.8,104.0 136.8,93.8 139.7,83.2 142.7,72.1 145.7,60.6 148.6,48.7" class="cv"/><polyline points="59.7,51.0 62.6,61.7 65.6,72.0 68.6,81.9 71.5,91.3 74.5,100.3 77.5,108.9 80.4,117.1 83.4,124.8 86.4,132.1 89.3,138.9 92.3,145.3 95.3,151.3 98.2,156.9 101.2,162.0 104.2,166.7 107.1,171.0 110.1,174.8 113.1,178.2 116.0,181.2 119.0,183.7 121.9,185.8 124.9,187.5 127.9,188.8 130.8,189.6 133.8,190.0 136.8,189.9 139.7,189.4 142.7,188.5 145.7,187.2 148.6,185.4 151.6,183.2 154.6,180.6 157.5,177.6 160.5,174.1 163.5,170.1 166.4,165.8 169.4,161.0 172.4,155.8 175.3,150.1 178.3,144.1 181.3,137.6 184.2,130.6 187.2,123.3 190.2,115.5 193.1,107.2 196.1,98.6 199.1,89.5 202.0,80.0 205.0,70.0" style="stroke:#8e44ad;stroke-width:2;fill:none"/><circle cx="65.0" cy="220.0" r="3" class="p"/><text x="73.0" y="236.0" class="lb">O</text><circle cx="135.0" cy="190.0" r="3" class="p"/><text x="143.0" y="182.0" class="lb">(2,1)</text><text x="100" y="225" class="lb" style="fill:#e74c3c;font-size:11px">y=x²</text><text x="165" y="175" class="lb" style="fill:#8e44ad;font-size:11px">y=(x-2)²+1</text>
</svg>