<svg xmlns="http://www.w3.org/2000/svg" viewBox="0 0 300 240" width="300" height="240">
<style>
.ax{stroke:#bbb;stroke-width:.8;fill:none} .cv{stroke:#e74c3c;stroke-width:2;fill:none}
.ln{stroke:#3498db;stroke-width:1.5;fill:none} .dm{stroke:#aaa;stroke-width:.8;stroke-dasharray:4 3;fill:none}
.p{fill:#2c3e50} .lb{font:12px serif;fill:#2c3e50} .an{stroke:#27ae60;stroke-width:1;fill:rgba(39,174,96,.12)}
.rt{stroke:#27ae60;stroke-width:1;fill:none} .sh{fill:rgba(52,152,219,.1);stroke:#3498db;stroke-width:1}
.ci{stroke:#8e44ad;stroke-width:1.5;fill:none} .tn{stroke:#e67e22;stroke-width:1.5;fill:none}
.rd{stroke:#e74c3c;stroke-width:1;stroke-dasharray:5 3;fill:none}
</style><line x1="30.0" y1="175.0" x2="240.0" y2="175.0" class="ax"/><line x1="90.0" y1="225.0" x2="90.0" y2="25.0" class="ax"/><polyline points="30.0,50.0 32.7,63.1 35.3,75.8 38.0,88.1 40.6,100.0 43.3,111.5 45.9,122.7 48.6,133.4 51.3,143.8 53.9,153.7 56.6,163.3 59.2,172.5 61.9,181.2 64.6,189.6 67.2,197.6 69.9,205.2 72.5,212.4 75.2,219.2 77.8,225.6 80.5,231.7 83.2,237.3 85.8,242.6 88.5,247.4 91.1,251.9 93.8,255.9 96.5,259.6 99.1,262.9 101.8,265.8 104.4,268.3 107.1,270.4 109.7,272.1 112.4,273.4 115.1,274.3 117.7,274.9 120.4,275.0 123.0,274.7 125.7,274.1 128.4,273.1 131.0,271.6 133.7,269.8 136.3,267.6 139.0,265.0 141.6,262.0 144.3,258.6 147.0,254.8 149.6,250.6 152.3,246.1 154.9,241.1 157.6,235.7 160.3,230.0 162.9,223.9 165.6,217.3 168.2,210.4 170.9,203.1 173.5,195.4 176.2,187.3 178.9,178.8 181.5,169.9 184.2,160.6 186.8,150.9 189.5,140.9 192.2,130.4 194.8,119.5 197.5,108.3 200.1,96.7 202.8,84.6 205.4,72.2 208.1,59.4 210.8,46.2 213.4,32.6 216.1,18.6 218.7,4.2" class="cv"/><line x1="30.0" y1="200.0" x2="240.0" y2="25.0" class="ln"/><polygon points="90.0,175.0 210.0,50.0 60.0,175.0" class="sh"/><circle cx="210.0" cy="50.0" r="3" class="p"/><text x="218.0" y="42.0" class="lb">A(4,5)</text><circle cx="60.0" cy="175.0" r="3" class="p"/><text x="10.0" y="191.0" class="lb">B(-1,0)</text><circle cx="90.0" cy="175.0" r="3" class="p"/><text x="98.0" y="191.0" class="lb">O</text>
</svg>